Results
version=1
nRows=4
nColumns=211
inDegrees=yes
endheader
time	/jointset/ground_platform/platform_rx/value	/jointset/ground_platform/platform_rx/speed	/jointset/ground_platform/platform_ry/value	/jointset/ground_platform/platform_ry/speed	/jointset/ground_platform/platform_rz/value	/jointset/ground_platform/platform_rz/speed	/jointset/ground_platform/platform_ty/value	/jointset/ground_platform/platform_ty/speed	/jointset/ground_pelvis/pelvis_tilt/value	/jointset/ground_pelvis/pelvis_tilt/speed	/jointset/ground_pelvis/pelvis_list/value	/jointset/ground_pelvis/pelvis_list/speed	/jointset/ground_pelvis/pelvis_rotation/value	/jointset/ground_pelvis/pelvis_rotation/speed	/jointset/ground_pelvis/pelvis_tx/value	/jointset/ground_pelvis/pelvis_tx/speed	/jointset/ground_pelvis/pelvis_ty/value	/jointset/ground_pelvis/pelvis_ty/speed	/jointset/ground_pelvis/pelvis_tz/value	/jointset/ground_pelvis/pelvis_tz/speed	/jointset/hip_r/hip_flexion_r/value	/jointset/hip_r/hip_flexion_r/speed	/jointset/hip_r/hip_adduction_r/value	/jointset/hip_r/hip_adduction_r/speed	/jointset/hip_r/hip_rotation_r/value	/jointset/hip_r/hip_rotation_r/speed	/jointset/walker_knee_r/knee_angle_r/value	/jointset/walker_knee_r/knee_angle_r/speed	/jointset/patellofemoral_r/knee_angle_r_beta/value	/jointset/patellofemoral_r/knee_angle_r_beta/speed	/jointset/ankle_r/ankle_angle_r/value	/jointset/ankle_r/ankle_angle_r/speed	/jointset/subtalar_r/subtalar_angle_r/value	/jointset/subtalar_r/subtalar_angle_r/speed	/jointset/mtp_r/mtp_angle_r/value	/jointset/mtp_r/mtp_angle_r/speed	/jointset/hip_l/hip_flexion_l/value	/jointset/hip_l/hip_flexion_l/speed	/jointset/hip_l/hip_adduction_l/value	/jointset/hip_l/hip_adduction_l/speed	/jointset/hip_l/hip_rotation_l/value	/jointset/hip_l/hip_rotation_l/speed	/jointset/walker_knee_l/knee_angle_l/value	/jointset/walker_knee_l/knee_angle_l/speed	/jointset/patellofemoral_l/knee_angle_l_beta/value	/jointset/patellofemoral_l/knee_angle_l_beta/speed	/jointset/socket/socket_flexion/value	/jointset/socket/socket_flexion/speed	/jointset/socket/socket_adduction/value	/jointset/socket/socket_adduction/speed	/jointset/socket/socket_rotation/value	/jointset/socket/socket_rotation/speed	/jointset/socket/socket_tx/value	/jointset/socket/socket_tx/speed	/jointset/socket/socket_ty/value	/jointset/socket/socket_ty/speed	/jointset/socket/socket_tz/value	/jointset/socket/socket_tz/speed	/jointset/pros_ankle/pros_ankle_rx/value	/jointset/pros_ankle/pros_ankle_rx/speed	/jointset/pros_ankle/pros_ankle_ry/value	/jointset/pros_ankle/pros_ankle_ry/speed	/jointset/pros_ankle/pros_ankle_rz/value	/jointset/pros_ankle/pros_ankle_rz/speed	/jointset/pros_ankle/pros_ankle_tx/value	/jointset/pros_ankle/pros_ankle_tx/speed	/jointset/pros_ankle/pros_ankle_ty/value	/jointset/pros_ankle/pros_ankle_ty/speed	/jointset/pros_ankle/pros_ankle_tz/value	/jointset/pros_ankle/pros_ankle_tz/speed	/jointset/foot_flex/foot_flex/value	/jointset/foot_flex/foot_flex/speed	/jointset/back/lumbar_extension/value	/jointset/back/lumbar_extension/speed	/jointset/back/lumbar_bending/value	/jointset/back/lumbar_bending/speed	/jointset/back/lumbar_rotation/value	/jointset/back/lumbar_rotation/speed	/jointset/acromial_r/arm_flex_r/value	/jointset/acromial_r/arm_flex_r/speed	/jointset/acromial_r/arm_add_r/value	/jointset/acromial_r/arm_add_r/speed	/jointset/acromial_r/arm_rot_r/value	/jointset/acromial_r/arm_rot_r/speed	/jointset/elbow_r/elbow_flex_r/value	/jointset/elbow_r/elbow_flex_r/speed	/jointset/radioulnar_r/pro_sup_r/value	/jointset/radioulnar_r/pro_sup_r/speed	/jointset/radius_hand_r/wrist_flex_r/value	/jointset/radius_hand_r/wrist_flex_r/speed	/jointset/radius_hand_r/wrist_dev_r/value	/jointset/radius_hand_r/wrist_dev_r/speed	/jointset/acromial_l/arm_flex_l/value	/jointset/acromial_l/arm_flex_l/speed	/jointset/acromial_l/arm_add_l/value	/jointset/acromial_l/arm_add_l/speed	/jointset/acromial_l/arm_rot_l/value	/jointset/acromial_l/arm_rot_l/speed	/jointset/elbow_l/elbow_flex_l/value	/jointset/elbow_l/elbow_flex_l/speed	/jointset/radioulnar_l/pro_sup_l/value	/jointset/radioulnar_l/pro_sup_l/speed	/jointset/radius_hand_l/wrist_flex_l/value	/jointset/radius_hand_l/wrist_flex_l/speed	/jointset/radius_hand_l/wrist_dev_l/value	/jointset/radius_hand_l/wrist_dev_l/speed	/forceset/addbrev_r/activation	/forceset/addlong_r/activation	/forceset/addlong_r/fiber_length	/forceset/addmagDist_r/activation	/forceset/addmagIsch_r/activation	/forceset/addmagIsch_r/fiber_length	/forceset/addmagMid_r/activation	/forceset/addmagProx_r/activation	/forceset/bflh_r/activation	/forceset/bflh_r/fiber_length	/forceset/bfsh_r/activation	/forceset/edl_r/activation	/forceset/edl_r/fiber_length	/forceset/ehl_r/activation	/forceset/ehl_r/fiber_length	/forceset/fdl_r/activation	/forceset/fdl_r/fiber_length	/forceset/fhl_r/activation	/forceset/fhl_r/fiber_length	/forceset/gaslat_r/activation	/forceset/gaslat_r/fiber_length	/forceset/gasmed_r/activation	/forceset/gasmed_r/fiber_length	/forceset/glmax1_r/activation	/forceset/glmax2_r/activation	/forceset/glmax3_r/activation	/forceset/glmed1_r/activation	/forceset/glmed2_r/activation	/forceset/glmed3_r/activation	/forceset/glmin1_r/activation	/forceset/glmin2_r/activation	/forceset/glmin3_r/activation	/forceset/glmin3_r/fiber_length	/forceset/grac_r/activation	/forceset/iliacus_r/activation	/forceset/perbrev_r/activation	/forceset/perbrev_r/fiber_length	/forceset/perlong_r/activation	/forceset/perlong_r/fiber_length	/forceset/piri_r/activation	/forceset/piri_r/fiber_length	/forceset/psoas_r/activation	/forceset/recfem_r/activation	/forceset/recfem_r/fiber_length	/forceset/sart_r/activation	/forceset/semimem_r/activation	/forceset/semimem_r/fiber_length	/forceset/semiten_r/activation	/forceset/semiten_r/fiber_length	/forceset/soleus_r/activation	/forceset/soleus_r/fiber_length	/forceset/tfl_r/activation	/forceset/tfl_r/fiber_length	/forceset/tibant_r/activation	/forceset/tibant_r/fiber_length	/forceset/tibpost_r/activation	/forceset/tibpost_r/fiber_length	/forceset/vasint_r/activation	/forceset/vasint_r/fiber_length	/forceset/vaslat_r/activation	/forceset/vaslat_r/fiber_length	/forceset/vasmed_r/activation	/forceset/vasmed_r/fiber_length	/forceset/addbrev_l/activation	/forceset/addlong_l/activation	/forceset/addlong_l/fiber_length	/forceset/addmagDist_l/activation	/forceset/addmagIsch_l/activation	/forceset/addmagIsch_l/fiber_length	/forceset/addmagMid_l/activation	/forceset/addmagProx_l/activation	/forceset/bflh_l/activation	/forceset/bflh_l/fiber_length	/forceset/bfsh_l/activation	/forceset/glmax1_l/activation	/forceset/glmax2_l/activation	/forceset/glmax3_l/activation	/forceset/glmed1_l/activation	/forceset/glmed2_l/activation	/forceset/glmed3_l/activation	/forceset/glmin1_l/activation	/forceset/glmin2_l/activation	/forceset/glmin3_l/activation	/forceset/glmin3_l/fiber_length	/forceset/grac_l/activation	/forceset/iliacus_l/activation	/forceset/piri_l/activation	/forceset/piri_l/fiber_length	/forceset/psoas_l/activation	/forceset/recfem_l/activation	/forceset/recfem_l/fiber_length	/forceset/sart_l/activation	/forceset/semimem_l/activation	/forceset/semimem_l/fiber_length	/forceset/semiten_l/activation	/forceset/semiten_l/fiber_length	/forceset/tfl_l/activation	/forceset/tfl_l/fiber_length	/forceset/vasint_l/activation	/forceset/vasint_l/fiber_length	/forceset/vaslat_l/activation	/forceset/vaslat_l/fiber_length	/forceset/vasmed_l/activation	/forceset/vasmed_l/fiber_length
      0.62508129	     20.00000000	      0.00000000	      0.00000000	      0.00000000	     -0.00000000	     -0.00000000	      0.25000000	      0.00000000	      2.59717218	    -40.39719351	     -3.60035698	    -25.17889610	      0.61118825	    -16.54856384	      0.01017839	      0.02420017	     -0.09250145	     -6.23634053	     -0.00465749	      0.01212938	    -11.44421477	     18.83765337	     21.07928910	     55.77248396	    -43.28983710	     38.31283407	    -34.55907320	    -64.24596085	     -0.60316961	     -1.12130355	    -23.03663863	      4.68878756	      0.00000000	      0.00000000	      0.00000000	      0.00000000	    -16.30227170	     17.10864081	     22.41253439	     44.03759466	    -41.40249426	     -9.32011072	    -78.98883583	   -216.76869370	     -1.37861526	     -3.78332742	    -51.48350797	   -285.84959494	     44.04117185	    165.31015147	    -41.21098714	    169.51173181	     -0.00000000	      0.00000000	     -0.14277646	     -0.79962912	     -0.00000000	      0.00000000	      0.00000000	      0.00000000	      0.00000000	      0.00000000	     -0.00000000	     -0.00000000	      0.00000000	      0.00000000	      0.00000000	      0.00000000	     -0.00000000	     -0.00000000	    -13.20405228	   -220.16066900	     -1.87457072	     48.37936913	      4.58945013	     30.08090143	     -0.31993186	     15.24015853	     -1.04841656	    -13.78300737	     -1.35249979	     -8.44217061	     -0.11895611	     -1.12602905	     -0.02431510	      4.31700485	      0.45409277	      1.63747908	      0.00000000	      0.00000000	      0.00000000	     -0.00000000	     -0.80946008	    -12.25092349	      1.31294841	      7.61108012	      0.40042746	      2.33102959	     -0.28329143	      2.65956988	     -0.19506547	     -2.29605864	     -0.00000000	      0.00000000	      0.00000000	      0.00000000	     -0.07047922	     -0.07047922	      0.10486062	     -0.07047922	     -0.07047922	      0.11386421	     -0.07047922	     -0.07047922	     -0.07047922	      0.08904505	     -0.07047922	     -0.07047922	      0.08150098	     -0.07047922	      0.09124891	     -0.07047922	      0.04168363	     -0.07047922	      0.04533264	     -0.07047922	      0.05747030	     -0.07047922	      0.03401206	     -0.07047922	     -0.07047922	     -0.07047922	     -0.07047922	     -0.07047922	     -0.07047922	     -0.07047922	     -0.07047922	     -0.07047922	      0.02956522	     -0.07047922	     -0.07047922	     -0.07047922	      0.04598700	     -0.07047922	      0.05059309	     -0.07047922	      0.00754951	     -0.07047922	     -0.07047922	      0.04544942	     -0.07047922	     -0.07047922	      0.07147305	     -0.07047922	      0.21730768	     -0.07047922	      0.03253317	     -0.07047922	      0.10728177	     -0.07047922	      0.08113814	     -0.07047922	      0.03519551	     -0.07047922	      0.05115765	     -0.07047922	      0.05628967	     -0.07047922	      0.05865780	     -0.07047922	     -0.07047922	      0.10746582	     -0.07047922	     -0.07047922	      0.11126249	     -0.07047922	     -0.07047922	     -0.07047922	      0.08675682	     -0.07047922	     -0.07047922	     -0.07047922	     -0.07047922	     -0.07047922	     -0.07047922	     -0.07047922	     -0.07047922	     -0.07047922	     -0.07047922	      0.02728865	     -0.07047922	     -0.07047922	     -0.07047922	      0.00753624	     -0.07047922	     -0.07047922	      0.02433504	     -0.07047922	     -0.07047922	      0.05327351	     -0.07047922	      0.18637263	     -0.07047922	      0.09573126	     -0.07047922	      0.03058813	     -0.07047922	      0.04322277	     -0.07047922	      0.04841622
      0.62593325	     20.00000000	      0.00000000	      0.00000000	      0.00000000	     -0.00000000	     -0.00000000	      0.25000000	      0.00000000	      2.56275867	    -40.39073752	     -3.62182469	    -25.21684473	      0.59700769	    -16.74119600	      0.01019901	      0.02420155	     -0.09781811	     -6.24469029	     -0.00464704	      0.01239905	    -11.42824997	     18.64153239	     21.12676513	     55.67814951	    -43.25693077	     38.93717622	    -34.61378049	    -64.18029283	     -0.60412444	     -1.12015742	    -23.03264224	      4.69467166	      0.00000000	      0.00000000	      0.00000000	      0.00000000	    -16.28764590	     17.22861750	     22.45000365	     43.92216368	    -41.41047416	     -9.41342742	    -79.17329395	   -216.24520912	     -1.38183466	     -3.77419089	    -51.72747859	   -286.86890436	     44.18182760	    164.87980266	    -41.06577321	    171.37893251	     -0.00000000	      0.00000000	     -0.14345853	     -0.80153179	     -0.00000000	      0.00000000	      0.00000000	      0.00000000	      0.00000000	      0.00000000	     -0.00000000	     -0.00000000	      0.00000000	      0.00000000	      0.00000000	      0.00000000	     -0.00000000	     -0.00000000	    -13.39221928	   -221.55665159	     -1.83336687	     48.34916383	      4.61510701	     30.14904330	     -0.30687932	     15.40142500	     -1.06016242	    -13.79093517	     -1.35970008	     -8.46068684	     -0.11991731	     -1.13041908	     -0.02063695	      4.31770984	      0.45549039	      1.64341314	      0.00000000	      0.00000000	      0.00000000	     -0.00000000	     -0.81989848	    -12.25373358	      1.31944030	      7.62877110	      0.40241615	      2.33743253	     -0.28102801	      2.65404514	     -0.19702275	     -2.29874631	     -0.00000000	      0.00000000	      0.00000000	      0.00000000	     -0.07058891	     -0.07058891	      0.10479854	     -0.07058891	     -0.07058891	      0.11386339	     -0.07058891	     -0.07058891	     -0.07058891	      0.08907012	     -0.07058891	     -0.07058891	      0.08149909	     -0.07058891	      0.09124693	     -0.07058891	      0.04168438	     -0.07058891	      0.04533380	     -0.07058891	      0.05747089	     -0.07058891	      0.03398941	     -0.07058891	     -0.07058891	     -0.07058891	     -0.07058891	     -0.07058891	     -0.07058891	     -0.07058891	     -0.07058891	     -0.07058891	      0.02959858	     -0.07058891	     -0.07058891	     -0.07058891	      0.04598750	     -0.07058891	      0.05059378	     -0.07058891	      0.00754826	     -0.07058891	     -0.07058891	      0.04539763	     -0.07058891	     -0.07058891	      0.07149714	     -0.07058891	      0.21733516	     -0.07058891	      0.03253579	     -0.07058891	      0.10729453	     -0.07058891	      0.08113587	     -0.07058891	      0.03519631	     -0.07058891	      0.05111137	     -0.07058891	      0.05625620	     -0.07058891	      0.05862731	     -0.07058891	     -0.07058891	      0.10741728	     -0.07058891	     -0.07058891	      0.11126524	     -0.07058891	     -0.07058891	     -0.07058891	      0.08671833	     -0.07058891	     -0.07058891	     -0.07058891	     -0.07058891	     -0.07058891	     -0.07058891	     -0.07058891	     -0.07058891	     -0.07058891	     -0.07058891	      0.02730811	     -0.07058891	     -0.07058891	     -0.07058891	      0.00753504	     -0.07058891	     -0.07058891	      0.02431122	     -0.07058891	     -0.07058891	      0.05310151	     -0.07058891	      0.18613836	     -0.07058891	      0.09570498	     -0.07058891	      0.03056997	     -0.07058891	      0.04326577	     -0.07058891	      0.04848925
      0.62678521	     20.00000000	      0.00000000	      0.00000000	      0.00000000	     -0.00000000	     -0.00000000	      0.25000000	      0.00000000	      2.52835331	    -40.37479847	     -3.64332447	    -25.25401148	      0.58266277	    -16.93366358	      0.01021963	      0.02420552	     -0.10314188	     -6.25302862	     -0.00463637	      0.01266858	    -11.41245606	     18.43241962	     21.17416028	     55.58289662	    -43.22349182	     39.56127131	    -34.66843215	    -64.11668206	     -0.60507829	     -1.11904721	    -23.02864104	      4.69735596	      0.00000000	      0.00000000	      0.00000000	      0.00000000	    -16.27292172	     17.33416178	     22.48737477	     43.80792224	    -41.41853361	     -9.50577198	    -79.35730869	   -215.73445880	     -1.38504632	     -3.76527662	    -51.97232507	   -287.91601074	     44.32211302	    164.44246838	    -40.91896381	    173.26159367	     -0.00000000	      0.00000000	     -0.14414223	     -0.80345692	     -0.00000000	      0.00000000	      0.00000000	      0.00000000	      0.00000000	      0.00000000	     -0.00000000	     -0.00000000	      0.00000000	      0.00000000	      0.00000000	      0.00000000	     -0.00000000	     -0.00000000	    -13.58158016	   -222.97329103	     -1.79219188	     48.30792530	      4.64082182	     30.21670605	     -0.29368898	     15.56312055	     -1.07191452	    -13.79699960	     -1.36691609	     -8.47895257	     -0.12088223	     -1.13473068	     -0.01695846	      4.31743204	      0.45689312	      1.64955593	      0.00000000	      0.00000000	      0.00000000	     -0.00000000	     -0.83033876	    -12.25468770	      1.32594724	      7.64633890	      0.40441028	      2.34383517	     -0.27876956	      2.64750979	     -0.19898225	     -2.30115590	     -0.00000000	      0.00000000	      0.00000000	      0.00000000	     -0.07069860	     -0.07069860	      0.10473665	     -0.07069860	     -0.07069860	      0.11386252	     -0.07069860	     -0.07069860	     -0.07069860	      0.08909509	     -0.07069860	     -0.07069860	      0.08149719	     -0.07069860	      0.09124494	     -0.07069860	      0.04168513	     -0.07069860	      0.04533495	     -0.07069860	      0.05747146	     -0.07069860	      0.03396670	     -0.07069860	     -0.07069860	     -0.07069860	     -0.07069860	     -0.07069860	     -0.07069860	     -0.07069860	     -0.07069860	     -0.07069860	      0.02964722	     -0.07069860	     -0.07069860	     -0.07069860	      0.04598801	     -0.07069860	      0.05059448	     -0.07069860	      0.00754701	     -0.07069860	     -0.07069860	      0.04534590	     -0.07069860	     -0.07069860	      0.07152111	     -0.07069860	      0.21736247	     -0.07069860	      0.03253842	     -0.07069860	      0.10730718	     -0.07069860	      0.08113360	     -0.07069860	      0.03519712	     -0.07069860	      0.05106513	     -0.07069860	      0.05622278	     -0.07069860	      0.05859688	     -0.07069860	     -0.07069860	      0.10736875	     -0.07069860	     -0.07069860	      0.11126809	     -0.07069860	     -0.07069860	     -0.07069860	      0.08667960	     -0.07069860	     -0.07069860	     -0.07069860	     -0.07069860	     -0.07069860	     -0.07069860	     -0.07069860	     -0.07069860	     -0.07069860	     -0.07069860	      0.02732756	     -0.07069860	     -0.07069860	     -0.07069860	      0.00753386	     -0.07069860	     -0.07069860	      0.02428764	     -0.07069860	     -0.07069860	      0.05292971	     -0.07069860	      0.18590482	     -0.07069860	      0.09567875	     -0.07069860	      0.03055199	     -0.07069860	      0.04330974	     -0.07069860	      0.04850687
      0.62753040	     20.00000000	      0.00000000	      0.00000000	      0.00000000	     -0.00000000	     -0.00000000	      0.25000000	      0.00000000	      2.49827185	    -40.35968355	     -3.66215512	    -25.28438356	      0.56998095	    -17.10264637	      0.01023767	      0.02420769	     -0.10780432	     -6.26031617	     -0.00462684	      0.01290532	    -11.39878917	     18.24759324	     21.21554831	     55.49616721	    -43.19380671	     40.10991537	    -34.71619045	    -64.05974793	     -0.60591183	     -1.11805352	    -23.02513877	      4.70294698	      0.00000000	      0.00000000	      0.00000000	      0.00000000	    -16.25996956	     17.42849710	     22.51998271	     43.70712318	    -41.42564740	     -9.58659522	    -79.51790047	   -215.26645731	     -1.38784918	     -3.75710845	    -52.18721242	   -288.80459259	     44.44450768	    164.04509887	    -40.78923867	    174.90028260	     -0.00000000	      0.00000000	     -0.14474157	     -0.80508496	     -0.00000000	      0.00000000	      0.00000000	      0.00000000	      0.00000000	      0.00000000	     -0.00000000	     -0.00000000	      0.00000000	      0.00000000	      0.00000000	      0.00000000	     -0.00000000	     -0.00000000	    -13.74819189	   -224.18182389	     -1.75620713	     48.27008455	      4.66336059	     30.27372148	     -0.28203853	     15.70511892	     -1.08219779	    -13.80182540	     -1.37324038	     -8.49446125	     -0.12172922	     -1.13845338	     -0.01374125	      4.31710745	      0.45812433	      1.65478658	      0.00000000	      0.00000000	      0.00000000	     -0.00000000	     -0.83947107	    -12.25513698	      1.33165085	      7.66126210	      0.40615894	      2.34929509	     -0.27679878	      2.64182611	     -0.20069782	     -2.30317212	     -0.00000000	      0.00000000	      0.00000000	      0.00000000	     -0.07079454	     -0.07079454	      0.10468268	     -0.07079454	     -0.07079454	      0.11386171	     -0.07079454	     -0.07079454	     -0.07079454	      0.08911683	     -0.07079454	     -0.07079454	      0.08149553	     -0.07079454	      0.09124321	     -0.07079454	      0.04168579	     -0.07079454	      0.04533596	     -0.07079454	      0.05747194	     -0.07079454	      0.03394680	     -0.07079454	     -0.07079454	     -0.07079454	     -0.07079454	     -0.07079454	     -0.07079454	     -0.07079454	     -0.07079454	     -0.07079454	      0.02967580	     -0.07079454	     -0.07079454	     -0.07079454	      0.04598845	     -0.07079454	      0.05059509	     -0.07079454	      0.00754592	     -0.07079454	     -0.07079454	      0.04530070	     -0.07079454	     -0.07079454	      0.07154197	     -0.07079454	      0.21738624	     -0.07079454	      0.03254072	     -0.07079454	      0.10731817	     -0.07079454	      0.08113160	     -0.07079454	      0.03519782	     -0.07079454	      0.05102474	     -0.07079454	      0.05619359	     -0.07079454	      0.05857031	     -0.07079454	     -0.07079454	      0.10732633	     -0.07079454	     -0.07079454	      0.11127065	     -0.07079454	     -0.07079454	     -0.07079454	      0.08664552	     -0.07079454	     -0.07079454	     -0.07079454	     -0.07079454	     -0.07079454	     -0.07079454	     -0.07079454	     -0.07079454	     -0.07079454	     -0.07079454	      0.02734457	     -0.07079454	     -0.07079454	     -0.07079454	      0.00753282	     -0.07079454	     -0.07079454	      0.02426723	     -0.07079454	     -0.07079454	      0.05277960	     -0.07079454	      0.18570116	     -0.07079454	      0.09565585	     -0.07079454	      0.03053641	     -0.07079454	      0.04334902	     -0.07079454	      0.04856999
